<?xml version="1.0" standalone="no"?>
<!DOCTYPE svg PUBLIC "-//W3C//DTD SVG 20010904//EN"
 "http://www.w3.org/TR/2001/REC-SVG-20010904/DTD/svg10.dtd">
<svg version="1.0" xmlns="http://www.w3.org/2000/svg"
 width="48.000000pt" height="63.000000pt" viewBox="0 0 48.000000 63.000000"
 preserveAspectRatio="xMidYMid meet">
<metadata>
Created by potrace 1.16, written by Peter Selinger 2001-2019
</metadata>
<g transform="translate(0.000000,63.000000) scale(0.100000,-0.100000)"
fill="#000000" stroke="none">
<path d="M328 545 c-21 -14 -42 -34 -48 -45 -13 -25 -30 -26 -30 -2 0 17 -56
62 -77 62 -20 0 -65 -44 -79 -75 -11 -26 -18 -32 -37 -28 -47 9 -65 -36 -39
-100 7 -16 15 -46 18 -68 9 -52 42 -77 82 -60 25 10 27 16 28 70 1 65 22 120
25 66 1 -16 2 -49 2 -72 0 -23 3 -40 7 -38 3 2 12 -5 19 -17 7 -11 9 -18 4
-15 -12 7 -24 -2 -50 -39 -28 -41 -31 -72 -10 -116 15 -32 21 -36 51 -34 19 1
32 -2 30 -6 -3 -5 0 -8 5 -8 14 0 71 79 71 98 0 11 3 12 14 3 10 -8 15 -9 18
-1 2 6 13 12 26 13 12 0 22 7 22 15 0 7 5 10 12 6 7 -4 8 -3 4 5 -4 6 -3 18 3
25 9 11 5 20 -19 40 -30 25 -31 26 -18 68 6 24 17 46 23 50 5 4 7 8 2 8 -4 0
5 24 20 53 15 28 27 55 28 59 0 3 3 9 6 13 13 13 -14 73 -38 84 -32 15 -33 15
-75 -14z"/>
</g>
</svg>
